<?xml version="1.0" standalone="no"?>
<!DOCTYPE svg PUBLIC "-//W3C//DTD SVG 20010904//EN"
 "http://www.w3.org/TR/2001/REC-SVG-20010904/DTD/svg10.dtd">
<svg version="1.0" xmlns="http://www.w3.org/2000/svg"
 width="320.000000pt" height="320.000000pt" viewBox="0 0 320.000000 320.000000"
 preserveAspectRatio="xMidYMid meet">

<g transform="translate(0.000000,320.000000) scale(0.100000,-0.100000)"
fill="#000000" stroke="none">
<path d="M1469 3130 c-234 -27 -469 -118 -653 -253 -44 -33 -158 -137 -251
-231 -139 -139 -178 -184 -207 -241 -72 -139 -73 -149 -73 -545 0 -519 -19
-476 399 -898 312 -315 383 -374 519 -437 121 -56 208 -76 350 -82 230 -10
399 36 582 159 70 47 369 339 392 383 22 41 21 131 -1 175 -10 19 -91 108
-179 197 l-161 163 -206 -204 c-185 -184 -211 -205 -265 -225 -47 -18 -76 -22
-130 -19 -125 6 -127 8 -577 457 -464 463 -463 462 -462 601 1 120 23 156 221
351 182 179 246 228 387 295 292 137 623 134 921 -11 49 -24 119 -66 155 -94
36 -27 202 -187 369 -355 168 -168 307 -303 310 -300 14 14 4 212 -13 269 -38
126 -68 169 -270 371 -210 210 -313 287 -482 362 -210 94 -465 136 -675 112z"/>
<path d="M1410 2744 c-124 -26 -237 -74 -345 -147 -77 -52 -361 -331 -386
-379 -22 -44 -25 -124 -5 -171 7 -18 88 -107 179 -198 l165 -166 199 197 c234
232 254 245 383 245 143 0 136 6 601 -462 444 -446 448 -451 456 -572 4 -52 0
-79 -17 -126 -20 -53 -41 -79 -184 -223 -187 -190 -257 -246 -381 -307 -303
-149 -642 -149 -940 -1 -60 31 -139 78 -175 105 -36 27 -200 185 -364 350
-165 166 -302 299 -304 296 -13 -13 -5 -205 12 -260 39 -132 79 -188 261 -371
185 -187 283 -265 421 -336 171 -89 311 -130 497 -147 296 -28 599 49 849 215
119 79 424 370 488 467 87 129 99 201 100 582 1 339 -7 410 -65 525 -34 68
-66 103 -344 383 -188 189 -331 324 -371 351 -121 81 -246 133 -374 155 -82
15 -278 12 -356 -5z"/>
</g>
</svg>
